<svg xmlns="http://www.w3.org/2000/svg" width="1200" height="368" viewBox="0 0 1200 368" version="1.1"><path d="M 1185.750 135.662 C 1186.438 135.940, 1187 137.479, 1187 139.083 C 1187 142.740, 1188.756 142.936, 1189.184 139.327 C 1189.644 135.434, 1192 135.091, 1192 138.917 C 1192 141.774, 1192.257 142, 1195.500 142 C 1198.833 142, 1199 141.833, 1199 138.500 C 1199 134.591, 1197.366 133.837, 1196.131 137.176 L 1195.325 139.353 1194.756 137.176 C 1194.267 135.304, 1193.511 135.011, 1189.344 135.079 C 1186.680 135.122, 1185.063 135.385, 1185.750 135.662 M 963.169 204.076 C 956.378 205.513, 951.132 213.560, 952.441 220.536 C 954.935 233.831, 974.401 235.857, 979.621 223.364 C 984.224 212.348, 975.028 201.567, 963.169 204.076 M 817.299 205.960 C 808.398 211.387, 809.064 225.955, 818.417 230.394 C 827.871 234.880, 839 228.381, 839 218.374 C 839 209.661, 833.491 204.007, 825 204.007 C 822.297 204.007, 819.222 204.787, 817.299 205.960 M 2 206.217 C 2 206.887, 9.293 235.472, 18.206 269.740 L 34.412 332.045 51.411 331.773 L 68.410 331.500 79.645 288.681 C 85.824 265.130, 91.025 245.425, 91.203 244.892 C 91.381 244.358, 96.213 262.276, 101.940 284.711 C 107.668 307.145, 112.749 326.974, 113.231 328.775 L 114.108 332.049 130.189 331.775 L 146.271 331.500 162.605 269 C 171.589 234.625, 178.953 206.149, 178.970 205.720 C 178.986 205.291, 173.305 205.066, 166.344 205.220 L 153.689 205.500 142.594 249.267 C 135.537 277.110, 131.235 292.392, 130.772 291.267 C 130.372 290.295, 125.736 272.850, 120.471 252.500 C 115.206 232.150, 110.234 213.137, 109.421 210.250 L 107.944 205 92.019 205 L 76.094 205 75.057 208.750 C 74.487 210.813, 69.188 231.093, 63.280 253.818 C 56.099 281.445, 52.286 294.534, 51.775 293.318 C 51.353 292.318, 46.275 272.825, 40.488 250 C 34.701 227.175, 29.719 207.713, 29.416 206.750 C 28.927 205.198, 27.349 205, 15.433 205 C 5.546 205, 2 205.321, 2 206.217 M 690.501 206.141 C 690.215 206.888, 690.098 235.400, 690.241 269.500 L 690.500 331.500 719 331.486 C 751.360 331.471, 757.500 330.604, 770.254 324.254 C 778.574 320.111, 787.073 312.064, 791.193 304.430 C 796.495 294.604, 798.416 285.082, 798.440 268.500 C 798.457 257.309, 798.019 251.850, 796.715 247 C 791.151 226.313, 778.270 213.509, 757.314 207.835 C 750.443 205.975, 745.971 205.663, 720.261 205.250 C 696.216 204.865, 690.929 205.023, 690.501 206.141 M 1143 268.500 L 1143 332 1156.500 332 L 1170 332 1170 268.500 L 1170 205 1156.500 205 L 1143 205 1143 268.500 M 351.696 221.637 C 350.538 222.795, 350.878 309.332, 352.062 314.852 C 353.770 322.818, 357.881 328.305, 364.603 331.594 C 369.664 334.071, 371.499 334.423, 378.953 334.353 C 383.654 334.308, 389.413 333.744, 391.750 333.098 L 396 331.923 396 323.961 L 396 316 390.016 316 C 384.818 316, 383.602 315.617, 380.766 313.084 L 377.500 310.167 377.199 286.084 L 376.899 262 386.987 262 L 397.075 262 396.788 252.750 L 396.500 243.500 386.783 243.214 L 377.067 242.928 376.783 232.214 L 376.500 221.500 364.446 221.221 C 357.816 221.067, 352.079 221.255, 351.696 221.637 M 996.696 221.637 C 996.313 222.020, 996 242.185, 996 266.449 C 996 314.397, 996.289 317.480, 1001.476 324.965 C 1003.291 327.585, 1006.193 329.926, 1009.832 331.706 C 1014.641 334.059, 1016.578 334.422, 1023.953 334.353 C 1028.654 334.308, 1034.412 333.744, 1036.750 333.098 L 1041 331.923 1041 323.961 L 1041 316 1035.016 316 C 1029.818 316, 1028.602 315.617, 1025.766 313.084 L 1022.500 310.167 1022.199 286.084 L 1021.899 262 1031.987 262 L 1042.075 262 1041.788 252.750 L 1041.500 243.500 1031.783 243.214 L 1022.067 242.928 1021.783 232.214 L 1021.500 221.500 1009.446 221.221 C 1002.816 221.067, 997.079 221.255, 996.696 221.637 M 718 268.500 L 718 310.232 731.250 309.757 C 753.551 308.959, 762.095 303.844, 767.592 288 C 769.141 283.535, 769.491 279.772, 769.450 268 C 769.406 255.215, 769.122 252.796, 767.053 247.551 C 763.872 239.485, 757.357 232.673, 750.143 229.873 C 745.683 228.141, 741.722 227.586, 731.250 227.225 L 718 226.768 718 268.500 M 203 242.814 C 194.522 245.030, 188.296 248.765, 182.696 254.994 C 174.605 263.992, 171.031 274.109, 171.012 288.068 C 170.978 312.873, 185.723 330.716, 208.972 334 C 225.845 336.384, 243.294 330.069, 250.682 318.904 L 253.394 314.806 251.198 313.153 C 249.990 312.244, 246.122 309.948, 242.603 308.051 L 236.205 304.603 233.394 307.944 C 225.596 317.211, 208.640 317.325, 202.109 308.153 C 199.939 305.106, 198.726 302.290, 197.627 297.750 L 196.962 295 228.247 295 L 259.533 295 258.863 285.250 C 258.131 274.597, 255.556 266.212, 250.937 259.443 C 240.677 244.404, 221.873 237.881, 203 242.814 M 290.550 242.537 C 278.966 245.472, 271.269 251.988, 268.543 261.167 C 266.617 267.654, 266.618 269.351, 268.556 275.878 C 271.559 285.988, 279.879 292.095, 298.500 297.859 C 311.449 301.867, 315 304.030, 315 307.913 C 315 317.307, 295.552 318.723, 285.814 310.038 L 281.500 306.191 272.750 310.697 C 267.938 313.175, 264 315.519, 264 315.907 C 264 317.643, 269.361 323.608, 273.682 326.680 C 290.362 338.539, 321.982 336.725, 334.193 323.208 C 341.190 315.463, 342.565 303.483, 337.519 294.212 C 332.982 285.877, 325.144 281.065, 308.019 276.101 C 295.675 272.523, 293 270.926, 293 267.132 C 293 263.001, 296.118 260.738, 302.541 260.205 C 309.399 259.636, 315.933 261.943, 319.511 266.196 L 322.079 269.248 330.583 263.589 L 339.086 257.930 336.977 254.967 C 334.070 250.886, 327.076 246.264, 320.233 243.902 C 312.466 241.222, 298.310 240.571, 290.550 242.537 M 430.760 242.558 C 418.591 245.507, 409.149 252.980, 403.615 264.043 C 399.050 273.168, 397.637 280.412, 398.259 291.500 C 399.370 311.311, 409.839 325.850, 427.500 332.107 C 439.335 336.300, 456.935 334.639, 467.735 328.310 C 472.337 325.613, 480 317.545, 480 315.397 C 480 314.669, 476.288 311.874, 471.750 309.185 L 463.500 304.296 460.061 308.278 C 455.774 313.242, 451.670 315, 444.370 315 C 434.624 315, 427.307 308.730, 424.972 298.377 L 424.211 295 455.472 295 L 486.733 295 486.308 287.750 C 486.074 283.762, 485.406 278.250, 484.824 275.500 C 479.618 250.911, 455.906 236.463, 430.760 242.558 M 541.223 242.062 C 534.271 243.432, 526.980 247.973, 523.871 252.869 L 521.097 257.239 520.798 250.369 L 520.500 243.500 509 243.500 L 497.500 243.500 497.500 287.500 L 497.500 331.500 510.750 331.779 L 524 332.058 524 307.207 C 524 279.359, 524.620 275.757, 530.448 269.756 C 534.791 265.285, 540.260 262.749, 546.750 262.198 L 552 261.752 552 251.376 L 552 241 548.750 241.110 C 546.962 241.170, 543.575 241.598, 541.223 242.062 M 600.764 241.996 C 596.724 243.212, 591.413 246.720, 588.662 249.989 L 586.240 252.868 585.582 247.904 L 584.923 242.941 572.212 243.220 L 559.500 243.500 559.500 287.500 L 559.500 331.500 572.750 331.779 L 586 332.058 586.006 303.779 C 586.009 288.226, 586.456 273.899, 586.999 271.943 C 587.543 269.987, 589.348 267.083, 591.011 265.489 C 593.560 263.048, 595.014 262.537, 600.267 262.242 C 607.572 261.831, 611.785 263.864, 614.701 269.206 C 616.297 272.128, 616.534 275.861, 616.805 302.250 L 617.110 332 630.103 332 L 643.096 332 642.798 297.250 C 642.505 263.068, 642.461 262.413, 640.111 257.212 C 637.130 250.615, 630.733 244.863, 623.935 242.668 C 618.479 240.906, 605.622 240.533, 600.764 241.996 M 877.410 242.071 C 871.040 243.603, 862.937 249.012, 858.794 254.500 C 853.165 261.956, 850.864 269.533, 850.290 282.500 C 849.483 300.722, 853.500 312.768, 863.327 321.604 C 875.647 332.681, 898.009 332.696, 908.341 321.635 L 911.233 318.539 910.866 326.593 C 910.568 333.153, 910.040 335.319, 908.017 338.270 C 901.023 348.477, 885.518 349.131, 876.528 339.598 L 873.332 336.210 864.679 341.179 L 856.025 346.147 857.432 348.824 C 858.206 350.296, 860.788 353.365, 863.170 355.645 C 871.055 363.194, 879.857 366.134, 894.423 366.085 C 918.862 366.002, 933.417 353.750, 937.019 330.227 C 937.636 326.203, 937.939 307.430, 937.775 283.500 L 937.500 243.500 924.500 243.500 L 911.500 243.500 911 247.828 L 910.500 252.156 907.500 248.948 C 905.850 247.184, 902.550 244.861, 900.167 243.787 C 895.109 241.506, 883.422 240.625, 877.410 242.071 M 1072 242.362 C 1064.350 244.024, 1058.151 247.251, 1053.210 252.143 C 1050.894 254.436, 1049 256.591, 1049 256.932 C 1049 257.652, 1062.649 268, 1063.599 268 C 1063.949 268, 1065.746 266.675, 1067.591 265.055 C 1073.499 259.867, 1084.061 258.465, 1091.500 261.881 C 1096.823 264.325, 1099.060 267.028, 1099.698 271.786 L 1100.227 275.726 1087.363 276.252 C 1065.888 277.129, 1055.294 281.911, 1049.603 293.296 C 1042.336 307.835, 1048.662 325.648, 1063.393 332.121 C 1073.607 336.609, 1088.557 334.495, 1096.859 327.388 L 1101 323.844 1101 327.922 L 1101 332 1113.550 332 L 1126.100 332 1125.800 298.750 L 1125.500 265.500 1122.828 260.437 C 1119.640 254.396, 1113.398 248.506, 1107.349 245.830 C 1097.282 241.377, 1082.990 239.975, 1072 242.362 M 812 287.471 L 812 332 825.510 332 L 839.021 332 838.760 287.750 L 838.500 243.500 825.250 243.221 L 812 242.942 812 287.471 M 953.458 244.250 C 953.194 244.938, 953.095 264.850, 953.239 288.500 L 953.500 331.500 966.750 331.779 L 980 332.058 980 287.529 L 980 243 966.969 243 C 957.466 243, 953.807 243.338, 953.458 244.250 M 206.556 262.267 C 202.282 264.687, 199.225 269.068, 197.992 274.537 L 197.211 278 215.236 278 L 233.262 278 232.687 274.459 C 230.761 262.591, 217.175 256.252, 206.556 262.267 M 434.500 261.412 C 430.636 263.129, 427.493 266.577, 425.548 271.232 C 422.612 278.257, 421.986 278, 442.079 278 L 460.159 278 459.459 274.750 C 458.032 268.126, 454.085 263.113, 448.685 261.067 C 444.876 259.623, 438.156 259.787, 434.500 261.412 M 883.978 264.786 C 879.293 269.472, 877.777 274.682, 877.768 286.124 C 877.758 299.887, 880.838 306.627, 888.470 309.542 C 896.526 312.618, 904.676 309.193, 908.260 301.223 C 910.016 297.320, 910.375 294.641, 910.328 285.789 C 910.278 276.228, 909.980 274.480, 907.555 269.522 C 904.288 262.845, 901.230 261, 893.432 261 C 888.207 261, 887.469 261.295, 883.978 264.786 M 1078.962 294.250 C 1067.535 300.012, 1071.896 314.993, 1085 314.993 C 1094.039 314.993, 1099.933 308.010, 1099.978 297.250 L 1100 292 1091.712 292 C 1085.106 292, 1082.518 292.457, 1078.962 294.250" stroke="none" fill="#000000" fill-rule="evenodd"/><path d="M 944.206 3.127 C 937.224 6.583, 934.365 14.151, 937.346 21.287 C 938.698 24.521, 1055.001 140.297, 1059.326 142.715 C 1062.707 144.604, 1070.064 144.259, 1073.701 142.040 C 1079.944 138.234, 1080.500 135.858, 1080.500 113 C 1080.500 89.851, 1080.036 88.075, 1072.954 84.094 C 1069.466 82.134, 1067.726 82, 1045.795 82 C 1019.642 82, 1015.173 81.268, 1008.716 75.928 C 1006.634 74.206, 1003.710 70.481, 1002.218 67.649 C 999.516 62.520, 999.503 62.401, 999.003 36.500 C 998.521 11.597, 998.406 10.368, 996.263 7.364 C 992.359 1.891, 988.293 1, 967.230 1.001 C 950.146 1.002, 948.123 1.188, 944.206 3.127" stroke="none" fill="#ff0056" fill-rule="evenodd"/><path d="M 1114.304 3.956 C 1110.345 6.370, 1108.080 9.729, 1107.341 14.286 C 1106.251 21.003, 1108.158 23.736, 1126.759 42.118 C 1136.517 51.760, 1145.798 60.628, 1147.385 61.824 C 1153.390 66.353, 1163.655 63.836, 1168.036 56.759 C 1169.920 53.717, 1170.035 52.089, 1169.777 32.320 C 1169.521 12.716, 1169.346 10.931, 1167.429 8.320 C 1163.208 2.572, 1160.554 2.003, 1138 2.005 C 1119.443 2.007, 1117.197 2.192, 1114.304 3.956" stroke="none" fill="#52a6ff" fill-rule="evenodd"/><path d="M 1035.643 1.992 C 1029.758 3.831, 1026 9.322, 1026 16.082 C 1026 21.563, 1028.393 25.263, 1037.264 33.497 C 1041.244 37.191, 1067.696 63.303, 1096.046 91.523 C 1141.217 136.487, 1148.057 142.920, 1151.352 143.538 C 1156.660 144.534, 1161.876 143.463, 1164.738 140.790 C 1169.668 136.186, 1170 134.449, 1169.998 113.300 C 1169.997 91.513, 1169.393 88.767, 1163.680 84.571 C 1161.041 82.633, 1159.145 82.467, 1134.180 81.984 C 1104.496 81.411, 1103.225 81.137, 1096.362 73.838 C 1089.675 66.725, 1089.550 66.106, 1089 37.320 C 1088.533 12.866, 1088.364 10.958, 1086.438 8.382 C 1081.426 1.676, 1080.811 1.519, 1058.680 1.299 C 1047.581 1.189, 1037.214 1.500, 1035.643 1.992" stroke="none" fill="#a44dff" fill-rule="evenodd"/></svg>